Topo_regular_20170120.ufo
<glyph name="exclam" format="1">
  <advance width="500"/>
  <unicode hex="0021"/>
  <outline>
    <contour>
      <point x="167" y="-12" type="curve" smooth="yes"/>
      <point x="219" y="-12"/>
      <point x="240" y="11"/>
      <point x="240" y="54" type="curve" smooth="yes"/>
      <point x="240" y="97"/>
      <point x="219" y="120"/>
      <point x="167" y="120" type="curve" smooth="yes"/>
      <point x="114" y="120"/>
      <point x="96" y="97"/>
      <point x="96" y="54" type="curve" smooth="yes"/>
      <point x="96" y="11"/>
      <point x="114" y="-12"/>
    </contour>
    <contour>
      <point x="234" y="746" type="line"/>
      <point x="100" y="746" type="line"/>
      <point x="100" y="710" type="line" smooth="yes"/>
      <point x="100" y="559"/>
      <point x="121" y="312"/>
      <point x="125" y="245" type="curve"/>
      <point x="209" y="245" type="line"/>
      <point x="213" y="312"/>
      <point x="234" y="558"/>
      <point x="234" y="710" type="curve" smooth="yes"/>
    </contour>
  </outline>
</glyph>
<glyph name="question" format="1">
  <advance width="500"/>
  <unicode hex="003F"/>
  <outline>
    <contour>
      <point x="209" y="-12" type="curve" smooth="yes"/>
      <point x="153" y="-12"/>
      <point x="134" y="12"/>
      <point x="134" y="58" type="curve" smooth="yes"/>
      <point x="134" y="104"/>
      <point x="153" y="128"/>
      <point x="209" y="128" type="curve" smooth="yes"/>
      <point x="264" y="128"/>
      <point x="286" y="104"/>
      <point x="286" y="58" type="curve" smooth="yes"/>
      <point x="286" y="12"/>
      <point x="264" y="-12"/>
    </contour>
    <contour>
      <point x="70" y="685" type="curve"/>
      <point x="62" y="677" type="line"/>
      <point x="62" y="562" type="line"/>
      <point x="70" y="562" type="line"/>
      <point x="114" y="618"/>
      <point x="168" y="643"/>
      <point x="230" y="643" type="curve" smooth="yes"/>
      <point x="299" y="643"/>
      <point x="333" y="615"/>
      <point x="333" y="558" type="curve" smooth="yes"/>
      <point x="333" y="493"/>
      <point x="294" y="480"/>
      <point x="226" y="432" type="curve" smooth="yes"/>
      <point x="154" y="381"/>
      <point x="154" y="334"/>
      <point x="154" y="256" type="curve" smooth="yes"/>
      <point x="154" y="206" type="line"/>
      <point x="262" y="206" type="line"/>
      <point x="262" y="259" type="line" smooth="yes"/>
      <point x="262" y="330"/>
      <point x="279" y="349"/>
      <point x="330" y="383" type="curve" smooth="yes"/>
      <point x="396" y="427"/>
      <point x="438" y="473"/>
      <point x="438" y="558" type="curve" smooth="yes"/>
      <point x="438" y="671"/>
      <point x="374" y="745"/>
      <point x="249" y="745" type="curve" smooth="yes"/>
      <point x="169" y="745"/>
      <point x="113" y="718"/>
    </contour>
  </outline>
</glyph>
<glyph name="G" format="1">
  <advance width="635"/>
  <unicode hex="0047"/>
  <outline>
    <contour>
      <point x="560" y="382"/>
      <point x="560" y="296"/>
      <point x="560" y="296" type="curve"/>
      <point x="360" y="296" type="line"/>
      <point x="360" y="296"/>
      <point x="360" y="382"/>
      <point x="360" y="382" type="curve"/>
      <point x="560" y="382" type="line"/>
    </contour>
    <contour>
      <point x="549" y="568" type="line"/>
      <point x="515" y="595"/>
      <point x="464" y="629"/>
      <point x="367" y="629" type="curve"/>
      <point x="254" y="629"/>
      <point x="167" y="572"/>
      <point x="167" y="389" type="curve" smooth="yes"/>
      <point x="167" y="143"/>
      <point x="257" y="74"/>
      <point x="360" y="74" type="curve"/>
      <point x="402" y="74"/>
      <point x="428" y="82"/>
      <point x="460" y="96" type="curve"/>
      <point x="460" y="258" type="line"/>
      <point x="460" y="300"/>
      <point x="464" y="321"/>
      <point x="464" y="331" type="curve"/>
      <point x="560" y="335" type="line"/>
      <point x="560" y="58" type="line"/>
      <point x="503" y="14"/>
      <point x="447" y="-12"/>
      <point x="360" y="-12" type="curve"/>
      <point x="175" y="-12"/>
      <point x="59" y="94"/>
      <point x="59" y="389" type="curve" smooth="yes"/>
      <point x="59" y="638"/>
      <point x="188" y="721"/>
      <point x="368" y="721" type="curve" smooth="yes"/>
      <point x="436" y="721"/>
      <point x="502" y="701"/>
      <point x="549" y="675" type="curve"/>
    </contour>
  </outline>
</glyph>
<glyph name="O" format="1">
  <advance width="678"/>
  <unicode hex="004F"/>
  <outline>
    <contour>
      <point x="216" y="636"/>
      <point x="166" y="532"/>
      <point x="166" y="389" type="curve" smooth="yes"/>
      <point x="166" y="210"/>
      <point x="214" y="74"/>
      <point x="341" y="74" type="curve"/>
      <point x="468" y="74"/>
      <point x="512" y="210"/>
      <point x="512" y="389" type="curve" smooth="yes"/>
      <point x="512" y="532"/>
      <point x="466" y="636"/>
      <point x="341" y="636" type="curve"/>
    </contour>
    <contour>
      <point x="169" y="-10"/>
      <point x="59" y="143"/>
      <point x="59" y="389" type="curve" smooth="yes"/>
      <point x="59" y="608"/>
      <point x="152" y="720"/>
      <point x="341" y="720" type="curve" smooth="yes"/>
      <point x="530" y="720"/>
      <point x="619" y="608"/>
      <point x="619" y="389" type="curve" smooth="yes"/>
      <point x="619" y="143"/>
      <point x="513" y="-10"/>
      <point x="341" y="-10" type="curve"/>
    </contour>
  </outline>
</glyph>
<glyph name="P" format="1">
  <advance width="527"/>
  <unicode hex="0050"/>
  <outline>
    <contour>
      <point x="157" y="706" type="line"/>
      <point x="321" y="706" type="line"/>
      <point x="453" y="706"/>
      <point x="509" y="637"/>
      <point x="509" y="523" type="curve" smooth="yes"/>
      <point x="509" y="379"/>
      <point x="403" y="291"/>
      <point x="244" y="291" type="curve"/>
      <point x="90" y="291" type="line"/>
      <point x="90" y="383" type="line"/>
      <point x="222" y="383" type="line"/>
      <point x="357" y="383"/>
      <point x="404" y="423"/>
      <point x="404" y="523" type="curve" smooth="yes"/>
      <point x="404" y="589"/>
      <point x="374" y="614"/>
      <point x="276" y="614" type="curve"/>
      <point x="157" y="614" type="line"/>
    </contour>
    <contour>
      <point x="183" y="706"/>
      <point x="183" y="0"/>
      <point x="183" y="0" type="curve"/>
      <point x="80" y="0" type="line"/>
      <point x="80" y="0"/>
      <point x="80" y="706"/>
      <point x="80" y="706" type="curve"/>
      <point x="183" y="706" type="line"/>
    </contour>
  </outline>
</glyph>
<glyph name="S" format="1">
  <advance width="499"/>
  <unicode hex="0053"/>
  <outline>
    <contour>
      <point x="442" y="286"/>
      <point x="399" y="334"/>
      <point x="289" y="389" type="curve" smooth="yes"/>
      <point x="217" y="425"/>
      <point x="139" y="444"/>
      <point x="139" y="534" type="curve" smooth="yes"/>
      <point x="139" y="599"/>
      <point x="197" y="630"/>
      <point x="267" y="630" type="curve" smooth="yes"/>
      <point x="329" y="630"/>
      <point x="387" y="609"/>
      <point x="432" y="589" type="curve"/>
      <point x="432" y="688" type="line"/>
      <point x="395" y="701"/>
      <point x="333" y="721"/>
      <point x="268" y="721" type="curve" smooth="yes"/>
      <point x="148" y="721"/>
      <point x="33" y="662"/>
      <point x="33" y="536" type="curve" smooth="yes"/>
      <point x="33" y="399"/>
      <point x="143" y="352"/>
      <point x="209" y="319" type="curve" smooth="yes"/>
      <point x="303" y="272"/>
      <point x="332" y="254"/>
      <point x="332" y="190" type="curve"/>
      <point x="332" y="125"/>
      <point x="278" y="80"/>
      <point x="201" y="80" type="curve" smooth="yes"/>
      <point x="142" y="80"/>
      <point x="82" y="109"/>
      <point x="38" y="136" type="curve"/>
      <point x="38" y="23" type="line"/>
      <point x="90" y="3"/>
      <point x="137" y="-12"/>
      <point x="202" y="-12" type="curve" smooth="yes"/>
      <point x="345" y="-12"/>
      <point x="442" y="80"/>
      <point x="442" y="190" type="curve" smooth="yes"/>
    </contour>
  </outline>
</glyph>
<glyph name="Z" format="1">
  <advance width="522"/>
  <unicode hex="005A"/>
  <outline>
    <contour>
      <point x="494" y="646"/>
      <point x="494" y="706"/>
      <point x="494" y="706" type="curve"/>
      <point x="36" y="706" type="line"/>
      <point x="36" y="706"/>
      <point x="36" y="614"/>
      <point x="36" y="614" type="curve"/>
      <point x="481" y="614" type="line"/>
      <point x="494" y="646" type="line"/>
    </contour>
    <contour>
      <point x="501" y="0"/>
      <point x="501" y="92"/>
      <point x="501" y="92" type="curve"/>
      <point x="52" y="92" type="line"/>
      <point x="41" y="67" type="line"/>
      <point x="41" y="67"/>
      <point x="41" y="0"/>
      <point x="41" y="0" type="curve"/>
      <point x="501" y="0" type="line"/>
    </contour>
    <contour>
      <point x="71" y="39"/>
      <point x="494" y="545"/>
      <point x="494" y="545" type="curve"/>
      <point x="494" y="688" type="line"/>
      <point x="464" y="688" type="line"/>
      <point x="464" y="667" type="line"/>
      <point x="464" y="667"/>
      <point x="41" y="161"/>
      <point x="41" y="161" type="curve"/>
      <point x="41" y="8" type="line"/>
      <point x="71" y="8" type="line"/>
      <point x="71" y="39" type="line"/>
    </contour>
  </outline>
</glyph>
<glyph name="bracketright" format="1">
  <advance width="337"/>
  <unicode hex="005D"/>
  <outline>
    <contour>
      <point x="64" y="700"/>
      <point x="64" y="618"/>
      <point x="64" y="618" type="curve"/>
      <point x="205" y="622" type="line"/>
      <point x="205" y="622"/>
      <point x="205" y="700"/>
      <point x="205" y="700" type="curve"/>
      <point x="64" y="700" type="line"/>
    </contour>
    <contour>
      <point x="64" y="-54"/>
      <point x="64" y="-136"/>
      <point x="64" y="-136" type="curve"/>
      <point x="205" y="-136" type="line"/>
      <point x="205" y="-136"/>
      <point x="205" y="-58"/>
      <point x="205" y="-58" type="curve"/>
      <point x="64" y="-54" type="line"/>
    </contour>
    <contour>
      <point x="153" y="700"/>
      <point x="153" y="-136"/>
      <point x="153" y="-136" type="curve"/>
      <point x="257" y="-136" type="line"/>
      <point x="257" y="-136"/>
      <point x="257" y="700"/>
      <point x="257" y="700" type="curve"/>
      <point x="153" y="700" type="line"/>
    </contour>
  </outline>
</glyph>
<glyph name="c" format="1">
  <advance width="462"/>
  <unicode hex="0063"/>
  <outline>
    <contour>
      <point x="294" y="529" type="curve" smooth="yes"/>
      <point x="154" y="529"/>
      <point x="52" y="468"/>
      <point x="52" y="282" type="curve" smooth="yes"/>
      <point x="52" y="71"/>
      <point x="151" y="-12"/>
      <point x="278" y="-12" type="curve" smooth="yes"/>
      <point x="327" y="-12"/>
      <point x="393" y="2"/>
      <point x="423" y="41" type="curve"/>
      <point x="423" y="131" type="line"/>
      <point x="388" y="94"/>
      <point x="338" y="71"/>
      <point x="278" y="71" type="curve" smooth="yes"/>
      <point x="202" y="71"/>
      <point x="159" y="130"/>
      <point x="159" y="282" type="curve" smooth="yes"/>
      <point x="159" y="394"/>
      <point x="202" y="436"/>
      <point x="292" y="436" type="curve" smooth="yes"/>
      <point x="350" y="436"/>
      <point x="387" y="415"/>
      <point x="434" y="388" type="curve"/>
      <point x="434" y="499" type="line"/>
      <point x="395" y="515"/>
      <point x="348" y="529"/>
    </contour>
  </outline>
</glyph>
<glyph name="d" format="1">
  <advance width="564"/>
  <unicode hex="0064"/>
  <outline>
    <contour>
      <point x="392" y="134" type="line"/>
      <point x="366" y="99"/>
      <point x="322" y="76"/>
      <point x="274" y="76" type="curve" smooth="yes"/>
      <point x="191" y="76"/>
      <point x="158" y="148"/>
      <point x="158" y="282" type="curve" smooth="yes"/>
      <point x="158" y="394"/>
      <point x="197" y="436"/>
      <point x="270" y="436" type="curve" smooth="yes"/>
      <point x="318" y="436"/>
      <point x="363" y="420"/>
      <point x="392" y="399" type="curve"/>
    </contour>
    <contour>
      <point x="445" y="438" type="curve"/>
      <point x="404" y="485"/>
      <point x="334" y="529"/>
      <point x="254" y="529" type="curve" smooth="yes"/>
      <point x="150" y="529"/>
      <point x="51" y="464"/>
      <point x="51" y="282" type="curve" smooth="yes"/>
      <point x="51" y="87"/>
      <point x="135" y="-12"/>
      <point x="259" y="-12" type="curve" smooth="yes"/>
      <point x="341" y="-12"/>
      <point x="424" y="47"/>
      <point x="445" y="118" type="curve"/>
      <point x="445" y="118"/>
      <point x="445" y="438"/>
    </contour>
    <contour>
      <point x="388" y="750" type="line"/>
      <point x="388" y="101" type="line" smooth="yes"/>
      <point x="416" y="80" type="line"/>
      <point x="421" y="59"/>
      <point x="417" y="34"/>
      <point x="419" y="0" type="curve"/>
      <point x="513" y="0" type="line"/>
      <point x="503" y="58"/>
      <point x="493" y="112"/>
      <point x="493" y="191" type="curve" smooth="yes"/>
      <point x="493" y="750" type="line"/>
    </contour>
  </outline>
</glyph>
<glyph name="e" format="1">
  <advance width="548"/>
  <unicode hex="0065"/>
  <outline>
    <contour>
      <point x="168" y="529"/>
      <point x="51" y="464"/>
      <point x="51" y="283" type="curve"/>
      <point x="51" y="82"/>
      <point x="144" y="-12"/>
      <point x="293" y="-12" type="curve" smooth="yes"/>
      <point x="375" y="-12"/>
      <point x="414" y="5"/>
      <point x="463" y="27" type="curve"/>
      <point x="463" y="128" type="line"/>
      <point x="423" y="101"/>
      <point x="366" y="78"/>
      <point x="293" y="78" type="curve" smooth="yes"/>
      <point x="207" y="78"/>
      <point x="155" y="124"/>
      <point x="155" y="283" type="curve" smooth="yes"/>
      <point x="155" y="396"/>
      <point x="196" y="436"/>
      <point x="278" y="436" type="curve" smooth="yes"/>
      <point x="368" y="436"/>
      <point x="403" y="398"/>
      <point x="396" y="305" type="curve"/>
      <point x="396" y="305"/>
      <point x="136" y="305"/>
      <point x="136" y="305" type="curve"/>
      <point x="136" y="219" type="line"/>
      <point x="490" y="219" type="line"/>
      <point x="494" y="281" type="line" smooth="yes"/>
      <point x="504" y="440"/>
      <point x="426" y="529"/>
      <point x="278" y="529" type="curve"/>
    </contour>
  </outline>
</glyph>
<glyph name="j" format="1">
  <advance width="267"/>
  <unicode hex="006A"/>
  <outline>
    <contour>
      <point x="133" y="613" type="curve" smooth="yes"/>
      <point x="184" y="613"/>
      <point x="208" y="634"/>
      <point x="208" y="674" type="curve" smooth="yes"/>
      <point x="208" y="714"/>
      <point x="184" y="735"/>
      <point x="133" y="735" type="curve" smooth="yes"/>
      <point x="81" y="735"/>
      <point x="59" y="714"/>
      <point x="59" y="674" type="curve" smooth="yes"/>
      <point x="59" y="634"/>
      <point x="82" y="613"/>
    </contour>
    <contour>
      <point x="187" y="517" type="line"/>
      <point x="82" y="517" type="line"/>
      <point x="82" y="-22" type="line"/>
      <point x="82" y="-22"/>
      <point x="187" y="-22"/>
      <point x="187" y="-22" type="curve"/>
    </contour>
    <contour>
      <point x="-55" y="-120" type="curve"/>
      <point x="-55" y="-211" type="line"/>
      <point x="-23" y="-219"/>
      <point x="-8" y="-225"/>
      <point x="45" y="-225" type="curve" smooth="yes"/>
      <point x="119" y="-225"/>
      <point x="187" y="-193"/>
      <point x="187" y="-80" type="curve" smooth="yes"/>
      <point x="187" y="-8" type="line"/>
      <point x="82" y="-8" type="line"/>
      <point x="82" y="-54" type="line" smooth="yes"/>
      <point x="82" y="-126"/>
      <point x="42" y="-132"/>
      <point x="8" y="-132" type="curve" smooth="yes"/>
      <point x="-19" y="-132"/>
      <point x="-36" y="-127"/>
    </contour>
  </outline>
</glyph>
<glyph name="o" format="1">
  <advance width="554"/>
  <unicode hex="006F"/>
  <outline>
    <contour>
      <point x="140" y="-10"/>
      <point x="52" y="87"/>
      <point x="52" y="282" type="curve" smooth="yes"/>
      <point x="52" y="447"/>
      <point x="132" y="529"/>
      <point x="277" y="529" type="curve" smooth="yes"/>
      <point x="422" y="529"/>
      <point x="502" y="447"/>
      <point x="502" y="282" type="curve" smooth="yes"/>
      <point x="502" y="87"/>
      <point x="414" y="-10"/>
      <point x="277" y="-10" type="curve"/>
    </contour>
    <contour>
      <point x="194" y="436"/>
      <point x="158" y="395"/>
      <point x="158" y="282" type="curve" smooth="yes"/>
      <point x="158" y="144"/>
      <point x="197" y="76"/>
      <point x="277" y="76" type="curve"/>
      <point x="357" y="76"/>
      <point x="396" y="144"/>
      <point x="396" y="282" type="curve" smooth="yes"/>
      <point x="396" y="395"/>
      <point x="360" y="436"/>
      <point x="277" y="436" type="curve"/>
    </contour>
  </outline>
</glyph>
<glyph name="r" format="1">
  <advance width="372"/>
  <unicode hex="0072"/>
  <outline>
    <contour>
      <point x="177" y="0" type="line"/>
      <point x="177" y="406" type="line" smooth="yes"/>
      <point x="161" y="436" type="line"/>
      <point x="157" y="460"/>
      <point x="164" y="486"/>
      <point x="158" y="517" type="curve"/>
      <point x="49" y="517" type="line"/>
      <point x="59" y="465"/>
      <point x="72" y="424"/>
      <point x="72" y="304" type="curve" smooth="yes"/>
      <point x="72" y="0" type="line"/>
    </contour>
    <contour>
      <point x="177" y="382" type="curve"/>
      <point x="204" y="399"/>
      <point x="232" y="421"/>
      <point x="274" y="421" type="curve" smooth="yes"/>
      <point x="314" y="421"/>
      <point x="335" y="409"/>
      <point x="350" y="399" type="curve"/>
      <point x="350" y="518" type="line"/>
      <point x="338" y="521"/>
      <point x="311" y="523"/>
      <point x="292" y="523" type="curve" smooth="yes"/>
      <point x="229" y="523"/>
      <point x="187" y="473"/>
      <point x="148" y="436" type="curve"/>
      <point x="148" y="274" type="line"/>
      <point x="177" y="274" type="line"/>
      <point x="177" y="274"/>
      <point x="177" y="382"/>
    </contour>
  </outline>
</glyph>
<glyph name="u" format="1">
  <advance width="553"/>
  <unicode hex="0075"/>
  <outline>
    <contour>
      <point x="377" y="517" type="line"/>
      <point x="377" y="111" type="line" smooth="yes"/>
      <point x="393" y="81" type="line"/>
      <point x="397" y="57"/>
      <point x="390" y="31"/>
      <point x="396" y="0" type="curve"/>
      <point x="505" y="0" type="line"/>
      <point x="495" y="52"/>
      <point x="482" y="93"/>
      <point x="482" y="213" type="curve" smooth="yes"/>
      <point x="482" y="517" type="line"/>
    </contour>
    <contour>
      <point x="377" y="162" type="curve"/>
      <point x="338" y="118"/>
      <point x="301" y="76"/>
      <point x="251" y="76" type="curve" smooth="yes"/>
      <point x="194" y="76"/>
      <point x="175" y="107"/>
      <point x="175" y="184" type="curve" smooth="yes"/>
      <point x="175" y="517" type="line"/>
      <point x="70" y="517" type="line"/>
      <point x="70" y="162" type="line" smooth="yes"/>
      <point x="70" y="42"/>
      <point x="116" y="-12"/>
      <point x="218" y="-12" type="curve" smooth="yes"/>
      <point x="298" y="-12"/>
      <point x="356" y="41"/>
      <point x="406" y="95" type="curve"/>
      <point x="406" y="259" type="line"/>
      <point x="377" y="259" type="line"/>
      <point x="377" y="259"/>
      <point x="377" y="162"/>
    </contour>
  </outline>
</glyph>
<glyph name="x" format="1">
  <advance width="494"/>
  <unicode hex="0078"/>
  <outline>
    <contour>
      <point x="489" y="0" type="line"/>
      <point x="288" y="282" type="line"/>
      <point x="147" y="517" type="line"/>
      <point x="147" y="517"/>
      <point x="25" y="517"/>
      <point x="25" y="517" type="curve"/>
      <point x="205" y="248" type="line"/>
      <point x="364" y="0" type="line"/>
    </contour>
    <contour>
      <point x="293" y="245" type="line"/>
      <point x="463" y="517" type="line"/>
      <point x="463" y="517"/>
      <point x="344" y="517"/>
      <point x="344" y="517" type="curve"/>
      <point x="226" y="311" type="line"/>
    </contour>
    <contour>
      <point x="3" y="0" type="line"/>
      <point x="129" y="0" type="line"/>
      <point x="264" y="235" type="line"/>
      <point x="207" y="307" type="line"/>
    </contour>
  </outline>
</glyph>
<glyph name="z" format="1">
  <advance width="429"/>
  <unicode hex="007A"/>
  <outline>
    <contour>
      <point x="397" y="91" type="line"/>
      <point x="37" y="91" type="line"/>
      <point x="16" y="71" type="line"/>
      <point x="16" y="0" type="line"/>
      <point x="397" y="0" type="line"/>
    </contour>
    <contour>
      <point x="389" y="517" type="line"/>
      <point x="22" y="517" type="line"/>
      <point x="22" y="423" type="line"/>
      <point x="384" y="423" type="line"/>
      <point x="389" y="429" type="line"/>
    </contour>
    <contour>
      <point x="267" y="423" type="line"/>
      <point x="16" y="77" type="line"/>
      <point x="16" y="69" type="line"/>
      <point x="140" y="69" type="line"/>
      <point x="140" y="82" type="line"/>
      <point x="389" y="428" type="line"/>
      <point x="389" y="431" type="line"/>
      <point x="267" y="431" type="line"/>
    </contour>
  </outline>
</glyph>
<glyph name="acute" format="1">
  <advance width="500"/>
  <unicode hex="00B4"/>
  <outline>
    <contour>
      <point x="242" y="732" type="line"/>
      <point x="106" y="589" type="line"/>
      <point x="12" y="589" type="line"/>
      <point x="12" y="589"/>
      <point x="100" y="732"/>
      <point x="100" y="732" type="curve"/>
    </contour>
  </outline>
</glyph>
<glyph name="ccedilla" format="1">
  <advance width="462"/>
  <unicode hex="00E7"/>
  <outline>
    <contour>
      <point x="294" y="529" type="curve" smooth="yes"/>
      <point x="154" y="529"/>
      <point x="52" y="468"/>
      <point x="52" y="282" type="curve" smooth="yes"/>
      <point x="52" y="71"/>
      <point x="151" y="-12"/>
      <point x="278" y="-12" type="curve" smooth="yes"/>
      <point x="327" y="-12"/>
      <point x="393" y="2"/>
      <point x="423" y="41" type="curve"/>
      <point x="423" y="131" type="line"/>
      <point x="388" y="94"/>
      <point x="338" y="71"/>
      <point x="278" y="71" type="curve" smooth="yes"/>
      <point x="202" y="71"/>
      <point x="159" y="130"/>
      <point x="159" y="282" type="curve" smooth="yes"/>
      <point x="159" y="394"/>
      <point x="202" y="436"/>
      <point x="292" y="436" type="curve" smooth="yes"/>
      <point x="350" y="436"/>
      <point x="387" y="415"/>
      <point x="434" y="388" type="curve"/>
      <point x="434" y="499" type="line"/>
      <point x="395" y="515"/>
      <point x="348" y="529"/>
    </contour>
    <contour>
      <point x="316" y="16" type="curve"/>
      <point x="235" y="16" type="line"/>
      <point x="219" y="-41"/>
      <point x="195" y="-103"/>
      <point x="165" y="-167" type="curve"/>
      <point x="267" y="-167" type="line"/>
      <point x="282" y="-121"/>
      <point x="309" y="-40"/>
    </contour>
    <contour>
      <point x="258" y="-101" type="line"/>
      <point x="245" y="-128"/>
      <point x="229" y="-143"/>
      <point x="213" y="-167" type="curve"/>
      <point x="421" y="-167" type="line"/>
      <point x="421" y="-101" type="line"/>
    </contour>
  </outline>
</glyph>
<glyph name="a.alt" format="1">
  <advance width="520"/>
  <outline>
    <contour>
      <point x="358" y="216" type="line"/>
      <point x="363" y="126" type="line"/>
      <point x="321" y="89"/>
      <point x="282" y="74"/>
      <point x="228" y="74" type="curve"/>
      <point x="174" y="74"/>
      <point x="143" y="96"/>
      <point x="143" y="157" type="curve" smooth="yes"/>
      <point x="143" y="213"/>
      <point x="177" y="238"/>
      <point x="245" y="238" type="curve" smooth="yes"/>
      <point x="298" y="238"/>
      <point x="326" y="234"/>
      <point x="372" y="220" type="curve"/>
      <point x="372" y="282" type="line"/>
      <point x="335" y="296"/>
      <point x="283" y="311"/>
      <point x="220" y="311" type="curve"/>
      <point x="122" y="311"/>
      <point x="39" y="263"/>
      <point x="39" y="157" type="curve"/>
      <point x="39" y="52"/>
      <point x="108" y="-10"/>
      <point x="206" y="-10" type="curve" smooth="yes"/>
      <point x="294" y="-10"/>
      <point x="345" y="30"/>
      <point x="392" y="77" type="curve"/>
      <point x="400" y="183" type="line"/>
    </contour>
    <contour>
      <point x="450" y="318" type="line" smooth="yes"/>
      <point x="450" y="464"/>
      <point x="386" y="529"/>
      <point x="244" y="529" type="curve"/>
      <point x="187" y="529"/>
      <point x="132" y="510"/>
      <point x="89" y="489" type="curve"/>
      <point x="89" y="392" type="line"/>
      <point x="135" y="419"/>
      <point x="177" y="436"/>
      <point x="233" y="436" type="curve" smooth="yes"/>
      <point x="319" y="436"/>
      <point x="346" y="401"/>
      <point x="346" y="339" type="curve"/>
      <point x="346" y="265"/>
      <point x="348" y="140"/>
      <point x="350" y="85" type="curve"/>
      <point x="373" y="80" type="line"/>
      <point x="378" y="51"/>
      <point x="372" y="35"/>
      <point x="377" y="0" type="curve"/>
      <point x="467" y="0" type="line"/>
      <point x="460" y="58"/>
      <point x="450" y="74"/>
      <point x="450" y="202" type="curve" smooth="yes"/>
    </contour>
  </outline>
</glyph>
<glyph name="n.alt" format="1">
  <advance width="558"/>
  <outline>
    <contour>
      <point x="169" y="347" type="line"/>
      <point x="201" y="396"/>
      <point x="248" y="432"/>
      <point x="300" y="432" type="curve" smooth="yes"/>
      <point x="369" y="432"/>
      <point x="392" y="392"/>
      <point x="392" y="313" type="curve" smooth="yes"/>
      <point x="392" y="0" type="line"/>
      <point x="489" y="0" type="line"/>
      <point x="489" y="352" type="line" smooth="yes"/>
      <point x="489" y="462"/>
      <point x="427" y="529"/>
      <point x="330" y="529" type="curve" smooth="yes"/>
      <point x="243" y="529"/>
      <point x="174" y="469"/>
      <point x="127" y="393" type="curve"/>
      <point x="127" y="258" type="line"/>
      <point x="169" y="258" type="line"/>
    </contour>
    <contour>
      <point x="177" y="0" type="line"/>
      <point x="177" y="406" type="line" smooth="yes"/>
      <point x="163" y="406" type="line"/>
      <point x="163" y="517" type="line"/>
      <point x="69" y="517" type="line"/>
      <point x="80" y="442"/>
      <point x="80" y="434"/>
      <point x="80" y="374" type="curve" smooth="yes"/>
      <point x="80" y="0" type="line"/>
    </contour>
  </outline>
</glyph>
